<?xml version="1.0" encoding="UTF-8" standalone="no"?>
<!-- Created with Inkscape (http://www.inkscape.org/) -->

<svg
   xmlns:dc="http://purl.org/dc/elements/1.1/"
   xmlns:cc="http://creativecommons.org/ns#"
   xmlns:rdf="http://www.w3.org/1999/02/22-rdf-syntax-ns#"
   xmlns:svg="http://www.w3.org/2000/svg"
   xmlns="http://www.w3.org/2000/svg"
   xmlns:sodipodi="http://sodipodi.sourceforge.net/DTD/sodipodi-0.dtd"
   xmlns:inkscape="http://www.inkscape.org/namespaces/inkscape"
   version="1.1"
   id="svg3713"
   width="3413.3333"
   height="1920"
   viewBox="0 0 3413.3333 1920"
   sodipodi:docname="logo.svg"
   inkscape:version="0.92.3 (2405546, 2018-03-11)">
  <metadata
     id="metadata3719">
    <rdf:RDF>
      <cc:Work
         rdf:about="">
        <dc:format>image/svg+xml</dc:format>
        <dc:type
           rdf:resource="http://purl.org/dc/dcmitype/StillImage" />
        <dc:title></dc:title>
      </cc:Work>
    </rdf:RDF>
  </metadata>
  <defs
     id="defs3717" />
  <sodipodi:namedview
     pagecolor="#ffffff"
     bordercolor="#666666"
     borderopacity="1"
     objecttolerance="10"
     gridtolerance="10"
     guidetolerance="10"
     inkscape:pageopacity="0"
     inkscape:pageshadow="2"
     inkscape:window-width="1920"
     inkscape:window-height="1017"
     id="namedview3715"
     showgrid="false"
     inkscape:zoom="0.15652103"
     inkscape:cx="380.74398"
     inkscape:cy="910.01442"
     inkscape:window-x="-8"
     inkscape:window-y="-8"
     inkscape:window-maximized="1"
     inkscape:current-layer="svg3713" />
  <path
     style="fill:#000000;stroke-width:1.85277426"
     d="m 2437.5136,1893.8078 c -1.1066,-6.389 -51.8212,-293.9146 -112.6991,-638.9454 l -110.6869,-627.32865 49.9685,-260.20122 c 27.4829,-143.11066 50.4782,-260.77539 51.101,-261.47719 0.6232,-0.70179 65.847,117.86013 144.942,263.47093 79.0951,145.61081 144.4385,264.74691 145.2079,264.74691 0.7692,0 64.0428,-119.1143 140.608,-264.69846 76.5653,-145.58416 139.625,-264.2928 140.133,-263.79701 0.8865,0.86542 339.854,1796.82679 339.2128,1797.26069 -0.1719,0.1172 -177.0418,0.7457 -393.0441,1.3987 l -392.731,1.1876 z m 50.5462,-1012.48596 c 35.354,-7.69433 63.3009,-20.7233 80.7003,-37.62305 11.3198,-10.99475 16.2077,-21.52199 16.2077,-34.90767 0,-13.3857 -4.8879,-23.91293 -16.2077,-34.90768 -17.5326,-17.02926 -45.2514,-29.88543 -81.6424,-37.86648 -17.0092,-3.73036 -24.4732,-4.24259 -61.8228,-4.24259 -37.3494,0 -44.8134,0.51223 -61.8226,4.24259 -47.5772,10.43434 -83.8104,31.42 -94.2619,54.59478 -4.3217,9.58264 -4.7391,25.01565 -0.9252,34.20198 11.4282,27.52677 53.0194,50.01308 109.6737,59.29508 24.4506,4.00587 86.0537,2.44653 110.1009,-2.78696 z m 347.2394,1.00546 c 62.3137,-11.34854 104.3272,-39.46529 104.3272,-69.8188 0,-10.11988 -4.1378,-18.88047 -13.9625,-29.56025 -16.9457,-18.42061 -49.0564,-32.66486 -91.288,-40.49535 -24.546,-4.55121 -84.4193,-4.55121 -108.9652,0 -63.5796,11.78871 -105.2508,39.52531 -105.2508,70.0556 0,10.1199 4.138,18.8805 13.9628,29.56027 20.0453,21.79018 58.7992,36.68786 113.4504,43.61239 14.0256,1.77711 71.6491,-0.4259 87.7261,-3.35386 z M 557.19016,1890.5828 c -16.7603,-7.0282 -43.35517,-16.6929 -59.09974,-21.4774 -29.3106,-8.9069 -39.77527,-13.3894 -56.82702,-24.3426 -5.35249,-3.4381 -10.53834,-6.2512 -11.52402,-6.2512 -3.27518,0 -54.20548,-34.6869 -71.08726,-48.4152 -21.99382,-17.8853 -46.3381,-41.5463 -75.44729,-73.3298 -13.10781,-14.312 -26.67742,-28.6961 -30.15471,-31.9645 -3.47727,-3.2686 -8.23526,-9.5418 -10.57325,-13.9403 -2.338,-4.3987 -11.06069,-19.9486 -19.38379,-34.5556 -10.99947,-19.304 -18.35946,-35.3697 -26.94572,-58.8188 -13.04797,-35.6332 -26.03735,-81.2843 -29.65176,-104.2107 -1.2893,-8.1782 -3.39265,-19.888 -4.67391,-26.0217 -3.25025,-15.5579 -3.60181,-161.9586 -0.40446,-168.3843 1.22474,-2.4613 4.4333,-13.2573 7.13033,-23.9913 8.71259,-34.6762 28.11784,-84.3175 52.67737,-134.7559 12.99534,-26.6889 33.09773,-52.7187 79.03511,-102.339 44.54406,-48.11532 54.02471,-57.31486 66.98444,-64.99759 43.46821,-25.76871 75.8199,-43.84897 99.21992,-55.45063 57.37636,-28.44696 61.56338,-30.04862 100.10545,-38.29301 39.40307,-8.42858 102.31115,-23.45365 133.26702,-31.82978 20.03827,-5.42201 67.28586,-27.53772 90.05834,-42.15457 21.43671,-13.75948 57.36236,-54.09786 73.56861,-82.60487 13.51283,-23.76935 27.25752,-73.28212 31.87451,-114.82269 2.2668,-20.39387 1.25342,-55.35205 -2.29048,-79.02053 -5.8776,-39.25473 -31.89113,-101.94162 -53.11273,-127.9902 -27.2416,-33.43781 -63.20029,-60.08785 -97.13492,-71.98949 -13.83876,-4.85354 -21.27881,-6.16184 -44.43518,-7.81366 -30.22742,-2.15618 -26.40095,-2.74263 -58.06589,8.8989 -12.951,4.76139 -15.17222,5.02121 -34.16707,3.99649 -11.17343,-0.60278 -27.75312,-2.7911 -36.84372,-4.86291 -9.09046,-2.07181 -18.7286,-3.76694 -21.41801,-3.76694 -2.68955,0 -6.88697,-1.76773 -9.32801,-3.92829 -2.44091,-2.16058 -11.53969,-10.06518 -20.21944,-17.56582 -8.67977,-7.50066 -18.34562,-17.23363 -21.47938,-21.62886 -6.65841,-9.33831 -24.60912,-42.96551 -24.60912,-46.10038 0,-2.47892 -7.30278,-21.86822 -14.3489,-38.09769 -4.024,-9.26849 -4.85066,-13.97782 -4.89346,-27.88052 l -0.0512,-16.72831 10.80236,-20.44572 c 16.51135,-31.251279 32.60818,-50.930801 55.58641,-67.958537 14.68994,-10.885697 20.54441,-13.945167 33.48282,-17.497674 5.96307,-1.637312 12.50416,-3.434087 14.53575,-3.992826 13.38636,-3.681762 23.96794,-4.226171 70.18095,-3.610779 28.44169,0.37873 55.03657,1.146169 59.09962,1.705396 18.02952,2.481534 42.79239,7.061843 46.17175,8.54025 3.37796,1.477807 14.85199,4.631206 24.00921,6.598427 18.30343,3.932087 35.08688,9.947074 63.14072,22.628766 5.26994,2.382265 10.71357,4.331391 12.09692,4.331391 1.3835,0 3.30483,0.669259 4.26986,1.487259 0.96504,0.817986 6.74111,3.451943 12.83577,5.853209 6.09466,2.401279 12.32784,5.373454 13.85149,6.604825 1.52367,1.231372 5.26358,3.498406 8.3109,5.037858 3.04733,1.539437 11.86533,6.680382 19.59571,11.424293 7.73038,4.7439 15.00242,8.625282 16.16013,8.625282 1.15771,0 2.10487,0.83642 2.10487,1.8587 0,1.02228 1.24664,1.8587 2.7703,1.8587 1.52367,0 2.7703,0.73592 2.7703,1.63539 0,0.89945 4.68083,5.19214 10.40192,9.53927 5.72108,4.34715 11.76116,9.25702 13.42237,10.91086 1.66121,1.65382 6.74554,5.91185 11.29867,9.46228 16.22466,12.65169 26.25468,21.6027 38.42044,34.28731 6.78474,7.07417 17.32244,18.04002 23.41704,24.36857 21.3341,22.15276 38.7388,42.1804 40.8988,47.06247 1.1984,2.70848 6.8188,11.19762 12.4899,18.86476 17.3574,23.46727 22.2457,31.64446 33.334,55.76107 13.1416,28.58284 22.0204,51.7419 24.7312,64.50858 1.1301,5.32228 4.8218,17.0321 8.2039,26.02182 15.3091,40.69301 14.2407,31.06956 14.2341,128.21535 -0.014,97.52211 -0.4339,102.26686 -12.8014,142.15646 -17.7105,57.12191 -29.1185,89.59938 -39.2129,111.63557 -5.9614,13.01378 -13.3591,30.5399 -16.4391,38.94693 -12.7288,34.74362 -28.7557,56.68951 -76.477,104.72084 -50.42694,50.75464 -101.88524,89.2431 -164.41379,122.9745 -48.08478,25.9396 -95.79493,40.4547 -169.40219,51.5384 -74.472,11.2138 -130.80812,29.1794 -165.05441,52.636 -18.55034,12.7059 -44.45997,43.5772 -55.79493,66.4797 -32.95381,66.5842 -40.99156,93.7186 -40.99156,138.3829 0,20.2818 1.02889,31.3651 4.62294,49.7986 12.32214,63.1987 23.59532,85.6362 68.5437,136.4252 30.62316,34.6024 61.75453,54.9112 107.82627,70.3423 34.45905,11.5417 23.18242,11.1509 322.67134,11.1773 150.11863,0.018 274.36533,0.018 276.10363,0.018 3.2685,-0.018 5.7825,-6.7252 8.0097,-21.3872 0.9122,-6.0056 13.5248,-70.8819 16.6221,-85.5003 0.4332,-2.0445 1.6151,-7.8995 2.6263,-13.011 1.0113,-5.1113 4.4231,-22.0852 7.582,-37.7194 3.1588,-15.6344 5.9771,-30.2717 6.2628,-32.5273 0.2856,-2.2557 1.9282,-11.2108 3.65,-19.9001 1.7216,-8.6896 3.5121,-17.8902 3.9786,-20.4458 2.1247,-11.6386 8.1758,-40.7339 8.945,-43.0101 0.4697,-1.3905 1.2998,-5.4555 1.8442,-9.0335 1.5083,-9.9102 2.758,-16.7565 4.9201,-26.9513 1.084,-5.1113 2.3625,-11.8027 2.8412,-14.8695 0.6883,-4.4094 8.2143,-41.8229 12.7123,-63.1959 0.4304,-2.0445 4.1659,-21.7003 8.3011,-43.6795 4.1354,-21.9792 7.9414,-42.0531 8.4577,-44.6088 0.5164,-2.5557 5.5369,-27.6481 11.1567,-55.761 5.6197,-28.113 10.5663,-52.7872 10.9925,-54.8316 0.4263,-2.0447 1.5911,-8.736 2.5883,-14.8697 0.9974,-6.1337 5.6301,-29.9716 10.2949,-52.97299 4.6648,-23.00139 8.8448,-43.91178 9.2888,-46.4675 1.0266,-5.90839 6.2825,-32.67284 14.7828,-75.27741 3.6714,-18.40112 7.0405,-35.54766 7.4869,-38.10337 2.2717,-13.00665 12.0231,-63.22763 13.534,-69.7013 2.0489,-8.78002 4.1978,-19.32362 4.735,-23.23377 0.8148,-5.93106 39.4343,-203.62108 47.0657,-240.92592 1.0708,-5.23467 2.3628,-11.92601 2.8714,-14.8696 0.5084,-2.94361 5.859,-30.44449 11.89,-61.11308 6.0311,-30.66857 18.5022,-94.23616 27.7134,-141.2613 15.7107,-80.20522 23.1184,-117.67308 24.9893,-126.3917 0.4385,-2.04457 1.7059,-8.73395 2.816,-14.86529 2.9312,-16.18919 4.5021,-18.16586 8.1283,-10.22718 1.6342,3.57801 5.2949,10.68754 8.1344,15.79896 8.9545,16.11792 17.0334,31.08168 25.5903,47.39689 4.5577,8.68944 9.741,18.30822 11.5189,21.37508 2.9083,5.01632 11.844,21.81397 28.6743,53.90233 3.2173,6.13372 9.0627,17.00712 12.9898,24.16313 3.9271,7.15599 10.5023,19.37362 14.6115,27.15029 4.1092,7.77665 12.2833,23.0742 18.1643,33.99459 5.8811,10.92036 11.5051,21.70416 12.4976,23.96399 0.9926,2.25982 4.1049,8.29087 6.9158,13.40229 9.8389,17.88954 20.3383,37.27641 26.6758,49.25559 3.5154,6.64487 10.8939,20.44572 16.3967,30.66858 5.5029,10.22285 11.2049,21.09626 12.6715,24.16311 1.4665,3.06686 4.0189,7.66715 5.6723,10.22286 1.6532,2.55572 8.717,15.52016 15.6975,28.80987 6.9806,13.28973 15.8309,30.01804 19.6678,37.17404 10.4189,19.43193 29.7412,56.0456 36.0481,68.30727 1.4461,2.8113 2.9231,5.11143 3.2821,5.11143 0.359,0 1.8264,-2.30013 3.2611,-5.11143 17.989,-35.25301 31.9363,-61.13416 33.5395,-62.23804 1.091,-0.75107 1.2924,-1.37838 0.4477,-1.39402 -0.8446,-0.0149 0.1106,-2.74681 2.1227,-6.06924 2.0122,-3.32243 6.95,-12.31391 10.9728,-19.98105 4.0229,-7.66714 11.1709,-21.2589 15.8842,-30.20389 4.7135,-8.945 12.4132,-23.58228 17.1105,-32.52729 4.6973,-8.94498 12.2754,-23.37315 16.8402,-32.06259 10.4095,-19.81502 17.9495,-34.22889 32.0862,-61.33715 16.6435,-31.91557 47.6264,-90.71781 53.3743,-101.29921 2.7768,-5.11144 9.2046,-17.23947 14.284,-26.95119 5.0793,-9.7117 11.9222,-22.67614 15.2063,-28.80986 3.2844,-6.13372 13.0862,-24.95307 21.7822,-41.82078 8.6961,-16.86771 16.2935,-31.08679 16.8835,-31.59793 0.5896,-0.51115 4.8121,-8.41549 9.383,-17.56523 4.5711,-9.14973 10.7527,-21.27776 13.7371,-26.95117 l 5.4261,-10.315287 3.1386,16.728317 c 1.726,9.20056 3.5584,19.65577 4.0719,23.23376 0.5134,3.578 2.6357,14.86961 4.7162,25.09247 2.0804,10.22286 4.2888,22.35088 4.9077,26.95117 0.6186,4.60029 1.4844,9.61879 1.9239,11.15221 0.6537,2.28213 16.7585,90.11594 23.0039,125.46235 0.9031,5.11141 5.4785,30.20388 10.1676,55.76104 4.689,25.55714 13.882,75.95118 20.4286,111.98675 137.4251,756.4438 176.4295,971.0174 178.1409,980.0002 1.0711,5.6226 11.4557,62.4989 23.0766,126.3918 11.621,63.8928 28.6312,157.3731 37.8003,207.7337 9.1693,50.3605 16.6715,92.8087 16.6715,94.329 0,2.4428 -104.6153,2.7523 -899.8853,2.6617 l -899.88547,-0.1019 -30.47329,-12.7779 z M 1654.2285,887.10987 c 139.4873,-28.6306 136.5116,-128.96596 -4.6171,-155.67678 -13.7567,-2.60366 -26.9504,-3.4955 -51.7124,-3.4955 -46.6502,0 -78.6039,6.46034 -110.8119,22.40377 -74.6353,36.94555 -61.4121,100.9711 26.7796,129.66439 11.8156,3.84427 32.8407,8.21627 54.4826,11.32926 13.682,1.96807 68.9545,-0.75124 85.8792,-4.22514 z m 365.6794,0 c 139.4873,-28.6306 136.5116,-128.96596 -4.6172,-155.67678 -13.7564,-2.60366 -26.9503,-3.4955 -51.7122,-3.4955 -46.6503,0 -78.6039,6.46034 -110.812,22.40377 -74.6353,36.94555 -61.4121,100.9711 26.7796,129.66439 11.8156,3.84427 32.8408,8.21627 54.4826,11.32926 13.682,1.96807 68.9545,-0.75124 85.8792,-4.22514 z"
     id="path7"
     inkscape:connector-curvature="0" />
  <path
     style="fill:#ffffff;fill-opacity:0;stroke-width:1.59722948"
     d="m 1553.3764,888.17377 c -56.9012,-10.11143 -93.963,-29.75342 -108.4518,-57.47711 -3.9307,-7.5212 -4.5824,-10.58361 -4.5852,-21.54522 0,-10.32921 0.714,-14.13273 3.7393,-19.84817 9.2491,-17.47335 29.9174,-33.21999 58.8063,-44.80294 30.0279,-12.03964 65.3342,-17.07181 109.0981,-15.54966 52.3901,1.82219 97.6393,16.80517 123.2563,40.81286 25.8528,24.22857 27.6461,51.28703 5.0041,75.50155 -9.3068,9.9532 -17.0868,15.43298 -33.5058,23.59959 -24.3517,12.11222 -49.7152,18.32341 -85.1713,20.85733 -31.6136,2.25933 -48.9825,1.86497 -68.19,-1.54823 z"
     id="path36"
     inkscape:connector-curvature="0" />
  <path
     style="fill:#ffffff;fill-opacity:0;stroke-width:1.59722948"
     d="m 1919.1931,888.34214 c -60.076,-11.23434 -95.7,-30.77334 -109.371,-59.98754 -4.4374,-9.48243 -4.9022,-11.8301 -4.2211,-21.31845 0.919,-12.8027 5.0475,-21.58859 15.368,-32.70509 10.3566,-11.15533 26.916,-21.57181 47.0293,-29.58308 30.9747,-12.3374 65.6648,-17.33065 109.7503,-15.79731 52.296,1.81891 97.0067,16.61219 123.1096,40.73287 39.1246,36.15348 22.0928,79.5535 -41.0883,104.69963 -28.4526,11.3242 -49.8508,14.95494 -95.5021,16.20435 -23.9778,0.65623 -31.5846,0.2773 -45.0747,-2.24538 z"
     id="path38"
     inkscape:connector-curvature="0" />
  <path
     style="fill:#ffffff;fill-opacity:0;stroke-width:1.59722948"
     d="m 2373.0629,882.43949 c -51.7414,-9.28785 -90.957,-30.66223 -102.4951,-55.8648 -5.5116,-12.03882 -4.8442,-28.47233 1.6031,-39.4738 12.4247,-21.20108 50.6216,-41.84367 93.6544,-50.6132 13.5084,-2.75282 21.9686,-3.20465 60.0048,-3.20465 41.8282,0 45.3065,0.22939 62.8396,4.14427 34.3159,7.66223 60.1377,19.63489 77.6221,35.99068 12.9631,12.12643 17.4058,20.97358 17.5199,34.88945 0.068,8.32295 -0.8253,12.28218 -4.4275,19.61787 -12.9713,26.41544 -61.5152,50.30302 -112.6533,55.43467 -23.8766,2.39599 -78.1643,1.8625 -93.668,-0.92049 z"
     id="path40"
     inkscape:connector-curvature="0" />
  <path
     style="fill:#ffffff;fill-opacity:0;stroke-width:1.59722948"
     d="m 2739.6271,883.93062 c -50.2125,-8.22641 -82.4072,-20.81819 -101.7702,-39.80372 -11.6652,-11.43782 -16.3547,-20.55054 -16.3547,-31.781 0,-11.05773 4.6307,-20.2432 15.6318,-31.00786 24.3164,-23.79358 72.8334,-39.40568 128.0487,-41.20428 49.8737,-1.6246 88.2114,4.2318 121.4167,18.54737 42.5853,18.35954 61.941,47.25049 47.3966,70.74601 -17.5147,28.29392 -63.5897,49.53758 -117.0461,53.96611 -18.3763,1.52237 -69.1565,1.87527 -77.3228,0.53737 z"
     id="path42"
     inkscape:connector-curvature="0" />
</svg>
